<?xml version="1.0" encoding="UTF-8"?>
<svg id="Camada_1" xmlns="http://www.w3.org/2000/svg" version="1.1" viewBox="0 0 160 160">
  <!-- Generator: Adobe Illustrator 29.4.0, SVG Export Plug-In . SVG Version: 2.1.0 Build 152)  -->
  <defs>
    <style>
      .st0 {
        fill: #fff;
      }
    </style>
  </defs>
  <path class="st0" d="M-401.58-231.62V792.38h-1024V-231.62H-401.58ZM-952.05,337.81c2.61-3.99-6.79-4.85-8.7-5.76-4.85-2.31-6.76-7.68-7.27-12.71.84-48.59-1.15-97.31-.06-145.89.06-2.58,2.03-4.85-.47-6.45l-33.45,12.01.03,2.94c6.51,1.99,15.08,2.04,15.87,10.63l.13,128.82c.38,13.58-13.04,8.41-18.02,15.93.92,1.45,1.95,1.39,3.44,1.56,8,.91,16.12-1.05,24.07-1.09,3.93-.02,22.63,2.78,24.42.03ZM-1151.61,216.7c6.35,6.95,3.75-11,3.72-12.2-.15-6.16,1.11-19.49-1.48-24.49s-28.77-11.51-34.96-12c-90.91-7.18-129.57,109.17-63.34,159.24,26.27,19.86,71.14,18.82,98.9,2.16,1.94-11.52,2.07-23.71,1.92-35.55l-3.88.12c-4.88,19.93-17.45,38.98-39.59,40.83-87.38,7.29-86.31-166.76-1-159.81,14.35,1.17,25.64,7.84,32.3,20.65,2.29,4.41,5.96,19.46,7.41,21.05ZM-894.1,324.84c-2.92.32-4.72,3.13-7.71,3.76-7.29,1.53-11.5-1.77-11.29-9.21l33.8-130.19-1.37-3.18c-3.13,1.66-22.83,8.07-23.34,9.58-1.33,3.96,6.65,6.97,3.66,12.61l-30.74,119.19c.78,14.44,12.81,14.22,23.68,9.62,2.62-1.11,16.64-8.41,13.3-12.16ZM-563.53,190.07c-4.31-.05-9.36-1.69-10.75,3.53l-62.58,159.2-.49,4c3.38-.53,8.76,1.57,10.81-1.68l63.01-165.06ZM-1101.9,201.96c-4.65-.73-5.07,5.24-7.17,8.31-7.08,10.32-17.34,18.13-26.78,26.15,2.54,4.56,13.11.69,14.77,6.19.52,1.72,1.1,7.58,1.24,9.75,1.23,18.71-4.43,67.67,5.96,80.96,1.94,2.47,5.41,4.9,8.55,5.44,13.29,2.31,26.65-.75,35.4-11.45.3-1.35-1.11-2.43-2.41-2.46-3.98-.1-11.75,4.33-17.91,3.91-10.12-.69-11.02-7.7-11.67-16.38-1.68-22.26,1.37-46.54-.01-69.02l1.55-3.45h23.98c2.66-1.26,3.48-8.99,1-8.99h-24.98l-1.5-1.5v-27.47ZM-1036.96,252.91v-24.98l-26.91,13.58c.82,5,8.64,5.06,8.87,11.96-1.8,21.65,2.62,47.78.09,68.89-1.02,8.51-7.29,10.82-14.9,11.57l-.11,4.9h50.96c1.35-7.09-7.06-4.69-11.73-6.76-5.13-2.28-5.91-7.68-6.3-12.68-.95-12.27-1.52-42.23.28-53.74,1.18-7.58,7.82-18.55,16.24-18.81,7.27-.23,15.19,8.28,19.88-2.02,8.55-18.8-15.66-20.07-24.89-8.9l-11.47,17ZM-768.23,237.93l-29.97,7.99c-1.07,4.65,5.76,5.18,6.79,8.69.58,1.98.46,7.54.21,9.79-.77,6.96-8.38,36.6-11.27,42.68-6.63,14-34.33,30.59-46.72,15.29-6.06-7.47-1.78-17.69.12-25.94,4.18-18.14,10.18-36,14.74-54.06-.49-1.03-1.24-1.39-2.34-1.52-1.83-.22-22.97,7.09-24.19,8.3-.53.53-.65,1.63-1.2,2.26,2.63,2.37,6.62,3.49,5.96,7.9-1.5,18.43-18.45,50.68-12.8,67.77,8.55,25.89,53.28,10,62.73-8.25h1.98c-7.71,20.86,7.79,24.81,24.66,18.16,5.02-1.98,10.08-4.47,11.31-10.16-3.71.08-5.98,3.2-9.75,3.76-5.84.87-10.85-1.95-10.32-8.27l20.06-84.41ZM-503.49,279.86c.4-1.86-.94-2.42-2.07-3.4-11.35-9.89-36.23-27.91-49.15-35.76-7.95-4.84-14.2-1.94-8.24,6.25,12.33,9.38,25.45,17.79,37.81,27.12,1.13.85,5.17,3.01,4.67,4.3-5.9,6.36-46.31,30.25-47.77,35.2-1.57,5.3,3.25,7.71,7.78,5.73l56.98-39.43ZM-705.29,239.93c-1.58-2.21-18.76,1.04-22.43,1.03-7.02-.03-23.67-6.13-24.52,3.95,5.54.91,10.25.84,14.52,4.97,9.53,9.2,17.12,29,26.14,39.5-8.26,10.11-16.23,20.97-25.17,30.49-7.06,7.52-13.27,14.49-24.37,15.08l-.12,3.88,38.03-.43.85-4.47c-1.11-1.65-15.1-.15-12.5-7.11l26.97-30.89c1.73.37,19.12,27.15,19.55,29.48,1.89,10.2-9.22,6.24-11.48,10.41-.73,1.35-.64,1.58.5,2.55l45.99.46c2.66-2.74-7.9-6.63-9.51-7.97-1.77-1.47-3.82-4.7-5.29-6.7-9.57-13.04-17.9-28.45-26.99-41.94,9.41-12.28,19.68-30.24,34.82-35.79,3.19-1.17,11.22-1.01,9.96-5-.86-1.43-1.99-1.39-3.44-1.56-9.62-1.11-22.59.82-32.54.53-4.14,5.83,6.79,3.67,7.92,8.21l-.05,1.56-21.22,24.67c-1.8-.32-14.4-20.8-14.58-23.5-.45-6.54,11.05-8.49,8.97-11.4Z"/>
  <g>
    <path d="M28.42,67.21c-.29-.32-1.02-3.31-1.47-4.19-1.32-2.55-3.57-3.87-6.42-4.1-16.96-1.38-17.17,33.22.2,31.77,4.4-.37,6.9-4.15,7.87-8.12l.77-.02c.03,2.35,0,4.78-.38,7.07-5.52,3.31-14.44,3.52-19.66-.43-13.17-9.95-5.48-33.09,12.59-31.66,1.23.1,6.41,1.35,6.95,2.39s.27,3.64.29,4.87c0,.24.52,3.81-.74,2.43Z"/>
    <path d="M104.64,71.43l-3.99,16.78c-.11,1.26.89,1.82,2.05,1.64.75-.11,1.2-.73,1.94-.75-.24,1.13-1.25,1.63-2.25,2.02-3.35,1.32-6.43.54-4.9-3.61h-.39c-1.88,3.63-10.77,6.79-12.47,1.64-1.12-3.4,2.25-9.81,2.55-13.47.13-.88-.66-1.1-1.18-1.57.11-.13.13-.34.24-.45.24-.24,4.44-1.69,4.81-1.65.22.03.37.1.47.3-.91,3.59-2.1,7.14-2.93,10.75-.38,1.64-1.23,3.67-.02,5.16,2.46,3.04,7.97-.26,9.29-3.04.57-1.21,2.09-7.1,2.24-8.49.05-.45.07-1.55-.04-1.95-.2-.7-1.56-.8-1.35-1.73l5.96-1.59Z"/>
    <path d="M117.15,71.83c.41.58-1.87.97-1.78,2.27.04.54,2.54,4.61,2.9,4.67l4.22-4.9v-.31c-.21-.9-2.39-.47-1.56-1.63,1.98.06,4.56-.32,6.47-.1.29.03.51.02.68.31.25.79-1.35.76-1.98.99-3.01,1.1-5.05,4.67-6.92,7.11,1.81,2.68,3.46,5.74,5.37,8.34.29.4.7,1.04,1.05,1.33.32.27,2.42,1.04,1.89,1.58l-9.14-.09c-.23-.19-.24-.24-.1-.51.45-.83,2.66-.04,2.28-2.07-.09-.46-3.54-5.79-3.89-5.86l-5.36,6.14c-.52,1.38,2.27,1.09,2.48,1.41l-.17.89-7.56.09.02-.77c2.21-.12,3.44-1.5,4.85-3,1.78-1.89,3.36-4.05,5-6.06-1.79-2.09-3.3-6.02-5.2-7.85-.85-.82-1.79-.81-2.89-.99.17-2,3.48-.79,4.88-.79.73,0,4.15-.64,4.46-.2Z"/>
    <path d="M68.1,91.29c-.36.55-4.07-.01-4.86,0-1.58,0-3.2.4-4.79.22-.3-.03-.5-.02-.68-.31.99-1.5,3.66-.47,3.58-3.17l-.03-25.61c-.16-1.71-1.86-1.72-3.15-2.11v-.58s6.64-2.39,6.64-2.39c.5.32.11.77.09,1.28-.22,9.66.18,19.34.01,29,.1,1,.48,2.07,1.44,2.53.38.18,2.25.35,1.73,1.15Z"/>
    <path d="M38.31,64.28v5.46l.3.3h4.97c.49,0,.33,1.54-.2,1.79h-4.77l-.31.69c.27,4.47-.33,9.3,0,13.72.13,1.73.31,3.12,2.32,3.26,1.23.08,2.77-.8,3.56-.78.26,0,.54.22.48.49-1.74,2.13-4.4,2.74-7.04,2.28-.62-.11-1.31-.59-1.7-1.08-2.07-2.64-.94-12.38-1.18-16.09-.03-.43-.14-1.6-.25-1.94-.33-1.09-2.43-.32-2.94-1.23,1.88-1.59,3.92-3.15,5.32-5.2.42-.61.5-1.8,1.43-1.65Z"/>
    <path d="M51.22,74.41l2.28-3.38c1.84-2.22,6.65-1.97,4.95,1.77-.93,2.05-2.51.36-3.95.4-1.67.05-2.99,2.23-3.23,3.74-.36,2.29-.24,8.24-.05,10.68.08,1,.23,2.07,1.25,2.52.93.41,2.6-.07,2.33,1.34h-10.13s.02-.97.02-.97c1.51-.15,2.76-.61,2.96-2.3.5-4.2-.38-9.39-.02-13.7-.04-1.37-1.6-1.38-1.76-2.38l5.35-2.7v4.97Z"/>
    <path d="M79.62,88.71c.66.75-2.12,2.2-2.64,2.42-2.16.92-4.55.96-4.71-1.91l6.11-23.7c.59-1.12-.99-1.72-.73-2.51.1-.3,4.02-1.57,4.64-1.9l.27.63-6.72,25.88c-.04,1.48.8,2.13,2.25,1.83.59-.12.95-.68,1.53-.75Z"/>
    <path d="M145.34,61.92l-12.53,32.81c-.41.64-1.48.23-2.15.33l.1-.8,12.44-31.65c.28-1.04,1.28-.71,2.14-.7Z"/>
    <path d="M157.27,79.77l-11.33,7.84c-.9.39-1.86-.09-1.55-1.14.29-.98,8.32-5.73,9.5-7,.1-.26-.7-.69-.93-.86-2.46-1.85-5.06-3.53-7.52-5.39-1.18-1.63.06-2.2,1.64-1.24,2.57,1.56,7.51,5.14,9.77,7.11.22.2.49.31.41.68Z"/>
  </g>
</svg>